# xmcd
#
# Track frame offsets:
#	150
#	13040
#	25540
#	36731
#	48980
#	62595
#	73737
#	83799
#	96473
#	106431
#	116660
#	130219
#
# Disc length: 1886 seconds
#
# Revision: 1
# Processed by: cddbd v1.5.2PL0 Copyright (c) Steve Scherf et al.
# Submitted via: EZCDAudioConverter 2.8.0.1
#
DISCID=a5075c0c
DTITLE=Ronnie Thompson - Here I Am
DYEAR=1970
DGENRE=Country
TTITLE0=Sittin' On The Dock Of The Bay
TTITLE1=I Haven't Got The Heart To Say Goodbye
TTITLE2=I Saw The Light
TTITLE3=Workin' Man Blues
TTITLE4=It Couldn't Happen Again (But here I Am)
TTITLE5=Jambalaya (On The Bayou)
TTITLE6=Reconsider Me
TTITLE7=Your Cheatin' Heart
TTITLE8=Box Full Of Emtiness
TTITLE9=Downtown Country Girl
TTITLE10=Just A Closer Walk With Thee
TTITLE11=I'm So Lonesome I Could Cry
EXTD=
EXTT0=
EXTT1=
EXTT2=
EXTT3=
EXTT4=
EXTT5=
EXTT6=
EXTT7=
EXTT8=
EXTT9=
EXTT10=
EXTT11=
PLAYORDER=
